HIERARCHY
ROOT Hips
{
	OFFSET 0.000000 0.000000 0.000000
	CHANNELS 6 Xposition Yposition Zposition Zrotation Yrotation Xrotation 
	JOINT LHipJoint
	{
		OFFSET 0.000000 0.000000 0.000000
		CHANNELS 3 Zrotation Yrotation Xrotation
		JOINT LeftUpLeg
		{
			OFFSET 8.178360 -10.767780 5.035740
			CHANNELS 3 Zrotation Yrotation Xrotation
			JOINT LeftLeg
			{
				OFFSET 14.688660 -40.356780 0.000000
				CHANNELS 3 Zrotation Yrotation Xrotation
				JOINT LeftFoot
				{
					OFFSET 15.373200 -42.237540 0.000000
					CHANNELS 3 Zrotation Yrotation Xrotation
					JOINT LeftToeBase
					{
						OFFSET 0.945840 -2.598660 13.935300
						CHANNELS 3 Zrotation Yrotation Xrotation
						End Site
						{
							OFFSET 0.000000 0.000000 0.000000
						}
					}
				}
			}
		}
	}
	JOINT RHipJoint
	{
		OFFSET 0.000000 0.000000 0.000000
		CHANNELS 3 Zrotation Yrotation Xrotation
		JOINT RightUpLeg
		{
			OFFSET -7.833120 -10.767780 5.035740
			CHANNELS 3 Zrotation Yrotation Xrotation
			JOINT RightLeg
			{
				OFFSET -15.255180 -41.913300 0.000000
				CHANNELS 3 Zrotation Yrotation Xrotation
				JOINT RightFoot
				{
					OFFSET -15.409560 -42.337380 0.000000
					CHANNELS 3 Zrotation Yrotation Xrotation
					JOINT RightToeBase
					{
						OFFSET -0.988380 -2.715540 14.178900
						CHANNELS 3 Zrotation Yrotation Xrotation
						End Site
						{
							OFFSET 0.000000 0.000000 0.000000
						}
					}
				}
			}
		}
	}
	JOINT LowerBack
	{
		OFFSET 0.000000 0.000000 0.000000
		CHANNELS 3 Zrotation Yrotation Xrotation
		JOINT Spine
		{
			OFFSET 0.169620 12.213540 -1.160280
			CHANNELS 3 Zrotation Yrotation Xrotation
			JOINT Spine1
			{
				OFFSET 0.340320 12.293100 -0.256500
				CHANNELS 3 Zrotation Yrotation Xrotation
				JOINT Neck
				{
					OFFSET 0.000000 0.000000 0.000000
					CHANNELS 3 Zrotation Yrotation Xrotation
					JOINT Neck1
					{
						OFFSET -0.325020 10.477440 1.032120
						CHANNELS 3 Zrotation Yrotation Xrotation
						JOINT Head
						{
							OFFSET 0.624420 10.568160 -0.743820
							CHANNELS 3 Zrotation Yrotation Xrotation
							End Site
							{
								OFFSET 0.000000 0.000000 0.000000
							}
						}
					}
				}
				JOINT LeftShoulder
				{
					OFFSET 0.000000 0.000000 0.000000
					CHANNELS 3 Zrotation Yrotation Xrotation
					JOINT LeftArm
					{
						OFFSET 20.174460 7.205340 -1.867260
						CHANNELS 3 Zrotation Yrotation Xrotation
						JOINT LeftForeArm
						{
							OFFSET 29.898000 -0.000000 -0.000000
							CHANNELS 3 Zrotation Yrotation Xrotation
							JOINT LeftHand
							{
								OFFSET 20.901360 -0.000000 -0.000000
								CHANNELS 3 Zrotation Yrotation Xrotation
								JOINT LeftFingerBase
								{
									OFFSET 0.000000 0.000000 0.000000
									CHANNELS 3 Zrotation Yrotation Xrotation
									JOINT LeftHandIndex1
									{
										OFFSET 4.291560 -0.000000 -0.000000
										CHANNELS 3 Zrotation Yrotation Xrotation
										End Site
										{
											OFFSET 0.000000 0.000000 0.000000
										}
									}
								}
								JOINT LThumb
								{
									OFFSET 0.000000 0.000000 0.000000
									CHANNELS 3 Zrotation Yrotation Xrotation
									End Site
									{
										OFFSET 0.000000 0.000000 0.000000
									}
								}
							}
						}
					}
				}
				JOINT RightShoulder
				{
					OFFSET 0.000000 0.000000 0.000000
					CHANNELS 3 Zrotation Yrotation Xrotation
					JOINT RightArm
					{
						OFFSET -18.819600 8.244300 -2.427900
						CHANNELS 3 Zrotation Yrotation Xrotation
						JOINT RightForeArm
						{
							OFFSET -31.451400 -0.000000 -0.000000
							CHANNELS 3 Zrotation Yrotation Xrotation
							JOINT RightHand
							{
								OFFSET -20.665020 -0.000000 -0.000000
								CHANNELS 3 Zrotation Yrotation Xrotation
								JOINT RightFingerBase
								{
									OFFSET 0.000000 0.000000 0.000000
									CHANNELS 3 Zrotation Yrotation Xrotation
									JOINT RightHandIndex1
									{
										OFFSET -3.735180 -0.000000 -0.000000
										CHANNELS 3 Zrotation Yrotation Xrotation
										End Site
										{
											OFFSET 0.000000 0.000000 0.000000
										}
									}
								}
								JOINT RThumb
								{
									OFFSET 0.000000 0.000000 0.000000
									CHANNELS 3 Zrotation Yrotation Xrotation
									End Site
									{
										OFFSET 0.000000 0.000000 0.000000
									}
								}
							}
						}
					}
				}
			}
		}
	}
}
MOTION
Frames:	11
Frame Time:	0.0333333
76.873908 105.830514 -193.584876 -2.054034 -8.276634 0.888234 -0.498988 0.465028 0.232425 -12.080723 -7.043004 -27.738695 0.213183 8.925957 24.760977 0.566434 2.864125 16.069056 0.349600 -3.799200 -10.512500 -1.481227 -2.379213 1.738672 26.375534 5.517292 8.883511 -4.663015 -11.892554 39.910124 -1.465989 -1.424368 26.914602 -0.164800 -2.615300 7.209500 3.227662 3.390225 4.980557 0.973597 4.266796 -1.867252 0.900153 2.711656 -3.360750 -6.991868 -3.004813 -6.070880 3.479482 -3.397917 13.842446 2.737700 -2.156900 8.507400 -7.329342 3.634387 -2.434279 -83.098638 11.817238 12.478939 8.274811 -17.085611 -1.483265 -1.402246 -3.485630 16.690207 12.450213 22.266621 5.717500 -7.125000 0.000000 0.000000 -18.325900 55.664300 -4.914900 4.492013 -2.236370 -2.461563 78.415183 -1.022245 18.067449 -28.479064 37.925776 -13.404024 1.205921 0.252393 -0.859075 -16.637873 9.874643 -3.064800 7.125000 0.000000 0.000000 6.508500 -19.965100 3.920100 
76.841124 106.445982 -187.338048 0.001812 -8.052325 -0.215565 -0.506420 0.669725 0.623260 -15.895419 -5.035245 -25.070100 0.506688 9.245866 26.539070 0.902184 0.722053 14.704557 0.019700 -0.905400 -2.488600 -1.694547 -2.251642 1.396548 24.342576 7.237537 2.630829 -8.401887 -15.158269 52.764519 -2.300205 -4.873639 34.281463 -0.614900 -5.018500 13.961400 1.482776 3.239746 5.851779 0.674708 4.017584 -1.602368 0.755480 2.522316 -2.790860 -6.826079 -2.964683 -7.957101 3.456964 -3.296507 13.947052 2.672700 -2.076300 9.007500 -7.416829 3.512628 -2.337287 -82.922260 10.189510 10.580420 8.148050 -16.691298 -1.369038 -1.363867 -3.633601 17.741705 11.497689 23.867478 5.535600 -7.125000 0.000000 0.000000 -20.522200 57.082400 -6.254100 4.444346 -2.278604 -2.509044 79.829482 -1.535810 17.243099 -29.158448 38.425147 -13.861084 1.309052 0.285149 -2.875180 -17.618248 10.377898 -3.436100 7.125000 0.000000 0.000000 5.730800 -19.366700 3.523700 
76.769988 107.141862 -181.341738 1.623790 -8.108314 -0.783172 -0.546071 0.957327 1.027021 -18.700088 -5.254030 -21.195587 0.694438 9.164823 26.878560 0.179730 2.507855 11.205842 0.020800 -0.931000 -2.558900 -1.935843 -2.175989 1.224858 22.489672 8.595926 -4.528925 -11.554734 -17.153275 63.014979 -0.836123 -7.763629 27.289783 -0.248800 -3.209300 8.862100 0.370556 2.692746 7.337656 0.378979 3.256767 -1.957755 0.276261 2.124389 -4.641223 -6.411960 -2.319715 -7.500811 3.212764 -2.509728 13.913901 2.572300 -1.716100 8.925800 -7.598279 3.358803 -2.370908 -82.124907 10.134332 10.171273 7.758196 -15.853964 -1.148791 -1.453511 -3.752662 17.101962 12.101842 24.977427 6.113300 -7.125000 0.000000 0.000000 -20.663500 58.394700 -6.960700 4.466737 -2.224114 -2.606423 81.119958 -3.394024 18.078723 -27.985098 37.354408 -12.946473 1.277513 0.283712 -2.270839 -17.315801 9.934268 -3.221400 7.125000 0.000000 0.000000 5.968600 -19.861700 3.605200 
76.590606 107.758566 -175.681302 2.109885 -6.975832 -0.607619 -0.676656 1.156346 1.266423 -19.904235 -5.746637 -17.390157 0.574806 8.714409 25.959570 -0.106329 3.048694 8.744678 0.013400 -0.747800 -2.055200 -2.136432 -2.095425 1.014717 21.306171 8.342534 -12.413210 -13.138367 -18.141593 68.094871 0.178858 -9.273689 21.625447 -0.440200 -4.257200 11.801500 -0.436844 1.839550 6.130859 0.730020 2.077162 -1.638342 2.012253 1.480543 -3.053186 -7.357883 -1.795262 -7.378782 2.716828 -1.555050 13.229058 2.573200 -1.350300 8.328500 -7.703981 3.315943 -2.100537 -83.237893 7.014008 10.370251 7.283555 -14.762798 -0.933383 -1.640202 -3.666397 17.635793 12.891014 24.727627 6.536400 -7.125000 0.000000 0.000000 -19.480500 58.339900 -6.515900 4.850612 -2.312905 -2.548621 80.095479 -2.218799 18.155438 -25.053604 34.794974 -10.840433 1.195726 0.167713 -0.911053 -16.010489 10.252682 -3.090600 7.125000 0.000000 0.000000 6.961100 -19.519600 4.266500 
76.381536 108.062898 -169.798806 2.669327 -7.099744 -0.742696 -0.684506 1.366141 1.558493 -21.202871 -4.674313 -14.006751 0.660065 8.596783 26.062039 -0.275150 3.217790 5.744601 0.014400 -0.775900 -2.132400 -2.231312 -2.041016 0.897825 19.948135 8.432270 -18.749625 -13.196877 -18.524132 68.875081 0.687711 -7.958591 14.919379 -0.129200 -2.317100 6.382900 -0.865886 1.510668 5.689535 0.796883 1.631959 -1.559585 2.579079 1.206228 -2.605242 -7.442451 -1.691185 -7.462624 2.204353 -1.364366 13.864425 2.344800 -1.330600 8.565200 -7.727329 3.244019 -2.066486 -83.221150 5.534070 12.571755 7.610098 -15.337810 -1.105276 -1.630118 -3.485924 17.876556 12.864458 23.337951 6.209900 -7.125000 0.000000 0.000000 -18.454000 56.858400 -5.491400 5.107446 -2.402200 -2.557563 80.252810 -2.935383 17.690753 -22.695049 32.501608 -9.208001 1.146991 0.049408 1.166340 -15.330919 10.384313 -3.013900 7.125000 0.000000 0.000000 7.479000 -19.343600 4.618800 
75.941124 107.658978 -164.482290 3.719986 -5.384192 -0.578218 -0.613112 1.467183 1.707771 -22.859165 -4.698030 -11.629028 0.903932 8.834135 27.168228 -0.054010 2.196541 2.739304 0.014200 -0.770600 -2.118000 -2.232211 -1.949895 0.795031 18.355870 7.028001 -25.258506 -12.090210 -18.486880 66.190394 0.458327 -4.682038 8.622550 -0.076700 -1.787000 4.917500 -2.119362 0.586865 5.904845 0.829601 0.348828 -1.572976 3.407454 0.521063 -2.529747 -7.334336 -1.323279 -8.116511 2.110081 -0.851868 13.733331 2.276400 -1.073600 8.614000 -7.754329 3.069763 -2.064155 -82.813888 3.410421 15.949482 8.160498 -16.282324 -1.336883 -1.576523 -3.537779 16.306529 13.097968 23.624477 6.405000 -7.125000 0.000000 0.000000 -18.366000 57.204100 -5.618900 5.393349 -2.374678 -2.533148 80.432231 -3.256365 16.259939 -20.183182 29.716705 -7.494316 1.154776 -0.036254 3.533803 -15.349256 9.878971 -2.884100 7.125000 0.000000 0.000000 7.464800 -19.820600 4.529700 
75.493284 107.147430 -158.800206 4.698167 -4.850052 -0.639711 -0.602183 1.606952 1.944176 -24.388028 -3.501845 -8.726266 1.007256 8.768040 27.376934 0.095990 1.657553 -0.243582 0.039600 -1.285000 -3.533400 -2.142040 -1.840741 0.659145 17.172674 6.538432 -29.638126 -9.896131 -17.746730 59.583598 0.551263 -4.515568 4.553841 -0.006300 -0.513900 1.412000 -3.136139 0.171188 6.392587 0.830587 -0.247908 -1.605988 4.101784 0.178667 -2.745175 -7.537325 -1.366557 -8.575810 2.188484 -0.853705 13.827694 2.326700 -1.083700 8.805900 -7.744538 2.918205 -2.111966 -82.069420 1.592906 21.187219 8.894547 -17.568097 -1.682721 -1.477549 -3.554925 13.347295 13.660893 23.264543 6.633900 -7.125000 0.000000 0.000000 -17.438200 56.956900 -5.217800 5.591047 -2.339065 -2.518873 80.576912 -4.219171 14.675197 -18.303170 27.486202 -6.288267 1.159439 -0.100532 4.378664 -15.087927 9.663870 -2.790200 7.125000 0.000000 0.000000 7.647000 -20.005500 4.610200 
74.938434 106.923510 -153.169464 6.127972 -3.541057 -0.109654 -0.667472 1.750970 2.151551 -26.085210 -2.615170 -4.771354 0.707112 7.995295 25.421344 0.146733 1.511092 -1.793494 0.044800 -1.366500 -3.757800 -1.911028 -1.684375 0.376625 15.478697 5.463213 -32.593623 -6.737051 -15.945281 49.171193 0.984290 -6.343889 3.210905 -0.018300 0.873800 -2.401600 -4.428974 -0.113007 6.232279 0.744799 -0.614633 -1.115239 4.655190 -0.222329 -0.617911 -7.763198 -2.079183 -12.553853 2.319484 -1.512693 13.344505 2.325000 -1.340700 9.533600 -7.701540 2.540143 -2.023697 -81.327089 -3.802924 26.557071 9.915216 -19.131696 -2.160056 -1.375587 -3.533967 10.915551 13.938462 22.893023 6.694100 -7.125000 0.000000 0.000000 -16.821400 56.598400 -4.878600 5.872540 -2.187442 -2.386914 80.906571 -2.102924 11.384510 -16.574387 25.167657 -5.183855 1.196101 -0.212407 5.694686 -15.296589 9.560912 -2.830200 7.125000 0.000000 0.000000 7.464700 -20.013200 4.497200 
74.174514 106.623510 -147.494184 7.312235 -2.793793 0.871261 -0.814137 1.920162 2.527039 -26.874449 -1.424757 -1.285107 0.243487 6.852075 22.393249 0.350083 0.787245 -2.320360 0.068600 -1.689700 -4.648900 -1.553594 -1.523157 0.211202 13.706947 6.139237 -33.907423 -3.380825 -12.807928 36.148273 1.842185 -10.123561 5.309052 -0.034900 1.206500 -3.317200 -6.066609 -0.660156 5.648014 0.731132 -1.468046 -1.725149 5.603549 -0.542882 -2.593380 -7.696880 -1.948984 -8.396516 2.433106 -1.671615 12.367907 2.358100 -1.375100 8.134900 -7.604700 2.645250 -2.149785 -80.161845 -3.242039 29.061018 10.968720 -21.050753 -2.751461 -1.323355 -3.433528 9.477474 14.440788 21.847735 6.676400 -7.125000 0.000000 0.000000 -15.590600 55.576500 -4.119300 5.841170 -2.314466 -2.407634 81.207544 -6.003505 9.884833 -15.315633 23.661713 -4.507761 1.201128 -0.239656 6.439919 -14.919311 9.338327 -2.704000 7.125000 0.000000 0.000000 7.730700 -20.250000 4.618900 
73.322142 106.184334 -141.854160 7.944423 -2.092840 2.343732 -0.981302 2.085290 2.837856 -26.491919 -0.039914 1.591215 -0.214745 5.624336 19.133825 0.886409 -1.218674 -1.735684 0.181700 -2.745800 -7.571800 -1.123371 -1.383161 -0.049492 11.838757 8.315287 -33.411020 -0.704035 -8.587650 22.183689 3.305948 -15.546813 5.562288 -0.031000 1.136100 -3.123500 -6.761681 -1.114033 4.642776 0.799753 -2.033193 -1.843025 6.335360 -0.909416 -2.075942 -8.502805 -1.770838 -10.169910 3.136266 -1.172787 13.242802 2.871000 -1.169200 8.961800 -7.558088 2.500613 -2.221835 -79.737753 -6.092724 29.517675 11.890099 -22.382153 -3.203423 -1.385630 -3.437459 9.593993 15.074112 22.333940 7.117300 -7.125000 0.000000 0.000000 -15.159900 56.201700 -4.233600 6.007996 -2.273048 -2.405266 81.277445 -6.213351 6.999343 -13.761833 21.487602 -3.649166 1.244426 -0.391865 8.524291 -15.179715 9.412221 -2.812200 7.125000 0.000000 0.000000 7.493500 -20.054000 4.507900 
72.303372 105.623298 -135.968574 8.235758 -1.109992 3.157336 -1.014332 2.374074 3.143429 -25.511152 0.572624 5.409137 -0.520470 4.606541 16.543252 1.307738 -3.010170 -0.505020 0.453800 -4.321800 -11.983800 -0.758238 -1.459441 -0.178312 10.397236 10.042281 -30.872747 0.754049 -4.265226 9.970173 4.436427 -18.834753 3.449335 -0.194000 2.836800 -7.824700 -7.000488 -1.549673 4.133244 0.811777 -2.574756 -1.926414 6.510820 -1.228527 -1.931093 -8.319412 -2.302821 -10.779971 2.813053 -1.886940 13.968199 2.598100 -1.538900 9.502200 -7.501309 2.380801 -2.242466 -79.274182 -8.499464 28.664507 12.529636 -23.256909 -3.564162 -1.506064 -3.137046 8.869100 16.378867 19.685321 6.999200 -7.125000 0.000000 0.000000 -12.185700 53.585500 -2.602800 6.148560 -2.310184 -2.396786 81.949676 -6.943665 3.397036 -12.579807 19.768653 -3.050834 1.198384 -0.422862 10.812003 -14.652520 8.614096 -2.486000 7.125000 0.000000 0.000000 7.908900 -20.911300 4.608500 
